<?xml version="1.0" encoding="UTF-8"?>
<svg xmlns="http://www.w3.org/2000/svg" viewBox="0 -68 343.08 343.08" width="100" height="100">
  <g transform="translate(-1385,-612.84539)">
    <path
      fill="#28863c"
      fill-rule="nonzero"
      d="m 11884,6502.36 h 556.9 c 122,-2.5 221.3,-26.62 297.7,-72.29 76.5,-45.58 132.6,-103.86 168.3,-174.8 35.8,-70.83 53.7,-145.1 53.7,-222.7 -1.2,-77.66 -14.8,-143.96 -40.8,-198.96 -25.8,-54.9 -60.3,-100.21 -103.5,-136.04 -43.3,-35.73 -91,-64.07 -143.4,-85 -52.4,-20.99 -106,-36.41 -161,-46.25 -54.9,-9.9 -106.7,-16.36 -155.4,-19.38 -48.7,-3.07 -90.2,-4.58 -124.8,-4.58 V 4976.32 H 11884 Z m 347.7,-682.5 c 41.9,1.25 84.2,4.01 126.7,8.33 42.6,4.27 81.5,13.18 116.6,26.67 35.1,13.59 63.5,33.64 85,60.21 21.7,26.51 33.1,61.98 34.4,106.45 0,56.67 -16.4,99.43 -49.2,128.34 -32.6,29.01 -76.4,48.75 -131.2,59.16 -54.9,10.53 -115.6,15.84 -182.3,15.84 v -405"
      transform="matrix(0.13333333,0,0,-0.13333333,0,1479.8267)"
    />
    <path
      fill="#28863c"
      fill-rule="nonzero"
      d="M 11578.8,6502.36 V 5518.4 c 0,-188.75 -51,-330.94 -152.7,-426.46 -101.7,-95.57 -249.4,-143.33 -442.9,-143.33 -194.8,0 -342.8,47.76 -444,143.33 -101.2,95.52 -151.7,237.71 -151.7,426.46 v 983.96 h 347.9 v -882.29 c 0,-85.16 8.6,-151.77 25.9,-199.8 17.2,-48.07 44.2,-81.66 81.2,-100.83 37.1,-19.17 84,-28.75 140.7,-28.75 56.7,0 103.3,9.58 139.7,28.75 36.4,19.17 63.5,52.76 81.3,100.83 17.9,48.03 26.9,114.64 26.9,199.8 v 882.29 h 347.7"
      transform="matrix(0.13333333,0,0,-0.13333333,0,1479.8267)"
    />
  </g>
</svg>
