<?xml version="1.0" encoding="UTF-8" standalone="no"?>
<svg
   viewBox="650 475 1515.8546 370.96777"
   version="1.1"
   id="svg1"
   sodipodi:docname="homeup-logo-wordmark-light.svg"
   width="1515.8546"
   height="370.96777"
   xmlns:inkscape="http://www.inkscape.org/namespaces/inkscape"
   xmlns:sodipodi="http://sodipodi.sourceforge.net/DTD/sodipodi-0.dtd"
   xmlns="http://www.w3.org/2000/svg"
   xmlns:svg="http://www.w3.org/2000/svg">
  <defs
     id="defs1" />
  <sodipodi:namedview
     id="namedview1"
     pagecolor="#ffffff"
     bordercolor="#000000"
     borderopacity="0.25"
     inkscape:showpageshadow="2"
     inkscape:pageopacity="0.0"
     inkscape:pagecheckerboard="0"
     inkscape:deskcolor="#d1d1d1" />
  <g
     id="g1"
     transform="translate(120.32135,21.495941)">
    <path
       id="path3"
       d="m 11884,6502.36 h 556.9 c 122,-2.5 221.3,-26.62 297.7,-72.29 76.5,-45.58 132.6,-103.86 168.3,-174.8 35.8,-70.83 53.7,-145.1 53.7,-222.7 -1.2,-77.66 -14.8,-143.96 -40.8,-198.96 -25.8,-54.9 -60.3,-100.21 -103.5,-136.04 -43.3,-35.73 -91,-64.07 -143.4,-85 -52.4,-20.99 -106,-36.41 -161,-46.25 -54.9,-9.9 -106.7,-16.36 -155.4,-19.38 -48.7,-3.07 -90.2,-4.58 -124.8,-4.58 V 4976.32 H 11884 Z m 347.7,-682.5 c 41.9,1.25 84.2,4.01 126.7,8.33 42.6,4.27 81.5,13.18 116.6,26.67 35.1,13.59 63.5,33.64 85,60.21 21.7,26.51 33.1,61.98 34.4,106.45 0,56.67 -16.4,99.43 -49.2,128.34 -32.6,29.01 -76.4,48.75 -131.2,59.16 -54.9,10.53 -115.6,15.84 -182.3,15.84 v -405"
       style="fill:#28863c;fill-opacity:1;fill-rule:nonzero;stroke:none"
       transform="matrix(0.13333333,0,0,-0.13333333,0,1479.8267)" />
    <path
       id="path4"
       d="M 11578.8,6502.36 V 5518.4 c 0,-188.75 -51,-330.94 -152.7,-426.46 -101.7,-95.57 -249.4,-143.33 -442.9,-143.33 -194.8,0 -342.8,47.76 -444,143.33 -101.2,95.52 -151.7,237.71 -151.7,426.46 v 983.96 h 347.9 v -882.29 c 0,-85.16 8.6,-151.77 25.9,-199.8 17.2,-48.07 44.2,-81.66 81.2,-100.83 37.1,-19.17 84,-28.75 140.7,-28.75 56.7,0 103.3,9.58 139.7,28.75 36.4,19.17 63.5,52.76 81.3,100.83 17.9,48.03 26.9,114.64 26.9,199.8 v 882.29 h 347.7"
       style="fill:#28863c;fill-opacity:1;fill-rule:nonzero;stroke:none"
       transform="matrix(0.13333333,0,0,-0.13333333,0,1479.8267)" />
    <path
       id="path5"
       d="m 13013.1,5048.87 c 0,31.09 10.9,57.81 32.9,80.21 21.9,22.34 47.6,33.54 76.9,33.54 30.2,0 56.1,-11.2 77.7,-33.54 21.5,-22.4 32.3,-49.12 32.3,-80.21 0,-30.99 -10.8,-57.71 -32.3,-80.21 -21.6,-22.39 -47.5,-33.54 -77.7,-33.54 -29.3,0 -55,11.15 -76.9,33.54 -22,22.5 -32.9,49.22 -32.9,80.21"
       style="fill:#ffffff;fill-opacity:1;fill-rule:nonzero;stroke:none"
       transform="matrix(0.13333333,0,0,-0.13333333,0,1479.8267)" />
    <path
       id="path6"
       d="m 15341.5,5532.93 v -597.5 l -125.7,43.96 6.5,77.5 c -44.7,-49.07 -98.9,-84.8 -162.3,-107.3 -63.3,-22.34 -133.7,-33.54 -211.2,-33.54 -71.7,0 -139,14.27 -201.9,42.71 -62.9,28.44 -118.3,68.13 -166.3,118.96 -47.8,50.83 -85.1,109.63 -111.8,176.46 -26.7,66.77 -40,138.12 -40,213.96 0,76.77 12.9,148.59 38.7,215.41 25.9,66.77 62.2,125.63 108.8,176.46 46.5,50.83 101.4,90.47 164.8,118.96 63.4,28.44 132.7,42.71 207.7,42.71 93.8,0 174.2,-16.41 241,-49.17 66.8,-32.81 123.4,-77.19 170,-133.12 l -159,-174.59 c -30.9,50 -66.5,85.31 -106.6,106.04 -40.2,20.68 -83.9,31.05 -131.3,31.05 -50,0 -95.5,-14.95 -136.4,-44.8 -41,-29.74 -73.8,-69.79 -98.4,-120.2 -24.5,-50.42 -36.8,-106.67 -36.8,-168.75 0,-60.32 12.3,-115.21 36.8,-164.8 24.6,-49.58 57.4,-89.27 98.4,-118.95 40.9,-29.74 86.4,-44.59 136.4,-44.59 38.8,0 75.8,7.92 111.1,23.75 35.4,15.94 64.2,39.43 86.6,70.42 22.5,31.09 33.8,68.23 33.8,111.46 h -219.8 l -44,187.5 h 510.9"
       style="fill:#ffffff;fill-opacity:1;fill-rule:nonzero;stroke:none"
       transform="matrix(0.13333333,0,0,-0.13333333,0,1479.8267)" />
    <path
       id="path7"
       d="m 13502.9,5261.26 c 27.6,-19.9 59.8,-38.23 96.5,-55 36.6,-16.82 73.4,-29.95 110.4,-39.37 37.1,-9.48 71.3,-13.75 102.9,-12.92 31.5,0.83 56.9,8.33 76.2,22.5 19.5,14.27 29.2,37.39 29.2,69.37 0,28.44 -10.8,53.65 -32.3,75.63 -21.5,21.93 -49.2,42.55 -82.9,61.87 -33.6,19.43 -69.4,39.07 -107.3,58.96 -37.9,19.85 -73.7,41.56 -107.3,65.21 -33.6,23.75 -61,50.89 -82.1,81.46 -21.1,30.68 -31.6,66.3 -31.6,106.87 0,45.68 9.6,90.26 28.9,133.75 19.4,43.6 48.1,81.51 86.1,113.75 37.9,32.35 84.2,55.42 138.9,69.17 54.9,13.85 117.8,14.06 189,0.63 71.1,-13.34 149.8,-44.12 236,-92.3 l -98.3,-193.95 c -40.6,34.42 -80.9,56.97 -121.1,67.7 -40,10.84 -76.8,12.97 -110.4,6.46 -33.6,-6.4 -60.5,-18.44 -80.8,-36.04 -20.3,-17.66 -30.4,-37.71 -30.4,-60.21 0,-19.89 11.1,-37.81 33.5,-53.75 22.5,-15.83 51.6,-31.77 87.3,-47.71 35.8,-15.99 74,-33.69 114.4,-53.12 40.5,-19.32 78.7,-42.19 114.6,-68.54 35.8,-26.25 65.1,-57.29 87.9,-93.13 22.9,-35.73 34.4,-78.54 34.4,-128.54 0,-50.83 -13.9,-100 -41.5,-147.5 -27.7,-47.4 -66,-88.33 -115.2,-122.92 -49.1,-34.48 -107.2,-57.18 -174.6,-68.33 -67.2,-11.25 -140.7,-6.93 -220.4,12.92 -79.7,19.84 -163.5,60.73 -251.5,122.71 l 121.5,204.37"
       style="fill:#ffffff;fill-opacity:1;fill-rule:nonzero;stroke:none"
       transform="matrix(0.13333333,0,0,-0.13333333,0,1479.8267)" />
    <path
       id="path8"
       d="m 10071,6502.36 v -305.21 h -525.21 v -303.33 h 503.11 V 5588.61 H 9545.79 V 5281.52 H 10071 v -305.2 H 9197.87 V 6502.36 H 10071"
       style="fill:#ffffff;fill-opacity:1;fill-rule:nonzero;stroke:none"
       transform="matrix(0.13333333,0,0,-0.13333333,0,1479.8267)" />
    <path
       id="path9"
       d="m 8136.3,4985.48 h -181.25 l -388.54,958.34 -5.41,-967.5 h -346.05 v 1526.04 h 492.09 l 340.41,-880.42 336.67,880.42 h 493.75 V 4976.32 h -345.83 l -3.75,967.5 -392.09,-958.34"
       style="fill:#ffffff;fill-opacity:1;fill-rule:nonzero;stroke:none"
       transform="matrix(0.13333333,0,0,-0.13333333,0,1479.8267)" />
    <path
       id="path10"
       d="m 5376.55,5740.27 c 0,107.19 19.69,208.34 59.16,303.34 39.43,95 94.28,179.16 164.59,252.5 70.26,73.33 151.93,130.62 245,171.87 93.18,41.36 193.38,62.09 300.62,62.09 107.35,0 207.56,-20.73 300.63,-62.09 93.18,-41.25 174.58,-98.54 244.16,-171.87 69.69,-73.34 124.28,-157.5 163.75,-252.5 39.43,-95 59.17,-196.15 59.17,-303.34 0,-107.24 -19.74,-208.69 -59.17,-304.37 -39.47,-95.57 -94.06,-179.74 -163.75,-252.5 -69.58,-72.66 -150.98,-129.95 -244.16,-171.88 -93.07,-41.92 -193.28,-62.91 -300.63,-62.91 -107.24,0 -207.44,20.99 -300.62,62.91 -93.07,41.93 -174.74,99.22 -245,171.88 -70.31,72.76 -125.16,156.93 -164.59,252.5 -39.47,95.68 -59.16,197.13 -59.16,304.37 z m 345.83,0 c 0,-78.9 18.8,-151.35 56.46,-217.29 37.6,-65.99 88.44,-119.06 152.5,-159.16 64.17,-40 135.68,-60 214.58,-60 79.01,0 150.26,20 213.75,60 63.44,40.1 114.01,93.17 151.67,159.16 37.6,65.94 56.46,138.39 56.46,217.29 0,78.86 -18.86,151.31 -56.46,217.3 -37.66,65.93 -88.23,118.64 -151.67,158.12 -63.49,39.58 -134.74,59.38 -213.75,59.38 -78.9,0 -150.41,-19.8 -214.58,-59.38 -64.06,-39.48 -114.9,-92.19 -152.5,-158.12 -37.66,-65.99 -56.46,-138.44 -56.46,-217.3"
       style="fill:#ffffff;fill-opacity:1;fill-rule:nonzero;stroke:none"
       transform="matrix(0.13333333,0,0,-0.13333333,0,1479.8267)" />
    <path
       id="path11"
       d="M 5071.34,6502.36 V 4976.32 h -347.7 v 588.33 H 4320.3 v -588.33 h -347.71 v 1526.04 h 347.71 v -590 h 403.34 v 590 h 347.7"
       style="fill:#ffffff;fill-opacity:1;fill-rule:nonzero;stroke:none"
       transform="matrix(0.13333333,0,0,-0.13333333,0,1479.8267)" />
    <path
       id="path12"
       d="m 4114.04,6717 602.56,702.13 h 681.7 l 102.13,114.89 640.85,15.32 15.32,148.08 h 104.68 v -150.63 l 102.12,-2.56 559.15,-827.23 h -921.7 l -467.23,720 -84.26,-89.36 L 5860.43,6717 H 5148.09 L 4744.68,7322.1 4198.3,6717 h -84.26"
       style="fill:#ffffff;fill-opacity:1;fill-rule:nonzero;stroke:none"
       transform="matrix(0.13333333,0,0,-0.13333333,0,1479.8267)" />
  </g>
</svg>
