<?xml version="1.0" encoding="UTF-8" standalone="no"?>
<svg
   viewBox="2450 475 1515.8533 370.96777"
   version="1.1"
   id="svg1"
   sodipodi:docname="homeup-logo-wordmark.svg"
   width="1515.8533"
   height="370.96777"
   xmlns:inkscape="http://www.inkscape.org/namespaces/inkscape"
   xmlns:sodipodi="http://sodipodi.sourceforge.net/DTD/sodipodi-0.dtd"
   xmlns="http://www.w3.org/2000/svg"
   xmlns:svg="http://www.w3.org/2000/svg">
  <defs
     id="defs1" />
  <sodipodi:namedview
     id="namedview1"
     pagecolor="#ffffff"
     bordercolor="#000000"
     borderopacity="0.25"
     inkscape:showpageshadow="2"
     inkscape:pageopacity="0.0"
     inkscape:pagecheckerboard="0"
     inkscape:deskcolor="#d1d1d1" />
  <g
     id="g1"
     transform="translate(-666.34659,21.495941)">
    <path
       id="path13"
       d="m 31284,6502.36 h 556.9 c 122,-2.5 221.3,-26.62 297.7,-72.29 76.5,-45.58 132.6,-103.86 168.3,-174.8 35.8,-70.83 53.7,-145.1 53.7,-222.7 -1.2,-77.66 -14.8,-143.96 -40.8,-198.96 -25.8,-54.9 -60.3,-100.21 -103.5,-136.04 -43.3,-35.73 -91,-64.07 -143.4,-85 -52.4,-20.99 -106,-36.41 -161,-46.25 -54.9,-9.9 -106.7,-16.36 -155.4,-19.38 -48.7,-3.07 -90.2,-4.58 -124.8,-4.58 V 4976.32 H 31284 Z m 347.7,-682.5 c 41.9,1.25 84.2,4.01 126.7,8.33 42.6,4.27 81.5,13.18 116.6,26.67 35.1,13.59 63.5,33.64 85,60.21 21.7,26.51 33.1,61.98 34.4,106.45 0,56.67 -16.4,99.43 -49.2,128.34 -32.6,29.01 -76.4,48.75 -131.2,59.16 -54.9,10.53 -115.6,15.84 -182.3,15.84 v -405"
       style="fill:#28863c;fill-opacity:1;fill-rule:nonzero;stroke:none"
       transform="matrix(0.13333333,0,0,-0.13333333,0,1479.8267)" />
    <path
       id="path14"
       d="M 30978.8,6502.36 V 5518.4 c 0,-188.75 -51,-330.94 -152.7,-426.46 -101.7,-95.57 -249.4,-143.33 -443,-143.33 -194.7,0 -342.7,47.76 -443.9,143.33 -101.2,95.52 -151.7,237.71 -151.7,426.46 v 983.96 h 347.9 v -882.29 c 0,-85.16 8.6,-151.77 25.9,-199.8 17.2,-48.07 44.2,-81.66 81.2,-100.83 37.1,-19.17 84,-28.75 140.6,-28.75 56.8,0 103.4,9.58 139.8,28.75 36.4,19.17 63.5,52.76 81.3,100.83 17.9,48.03 26.9,114.64 26.9,199.8 v 882.29 h 347.7"
       style="fill:#28863c;fill-opacity:1;fill-rule:nonzero;stroke:none"
       transform="matrix(0.13333333,0,0,-0.13333333,0,1479.8267)" />
    <path
       id="path15"
       d="m 34741.5,5532.93 v -597.5 l -125.7,43.96 6.5,77.5 c -44.7,-49.07 -98.9,-84.8 -162.3,-107.3 -63.3,-22.34 -133.7,-33.54 -211.2,-33.54 -71.7,0 -139,14.27 -201.9,42.71 -62.9,28.44 -118.3,68.13 -166.3,118.96 -47.8,50.83 -85.1,109.63 -111.8,176.46 -26.7,66.77 -40,138.12 -40,213.96 0,76.77 12.9,148.59 38.7,215.41 25.9,66.77 62.2,125.63 108.8,176.46 46.5,50.83 101.4,90.47 164.8,118.96 63.4,28.44 132.7,42.71 207.7,42.71 93.8,0 174.2,-16.41 241,-49.17 66.8,-32.81 123.4,-77.19 170,-133.12 l -159,-174.59 c -30.9,50 -66.5,85.31 -106.6,106.04 -40.2,20.68 -83.9,31.05 -131.3,31.05 -50,0 -95.5,-14.95 -136.4,-44.8 -41,-29.74 -73.8,-69.79 -98.4,-120.2 -24.5,-50.42 -36.8,-106.67 -36.8,-168.75 0,-60.32 12.3,-115.21 36.8,-164.8 24.6,-49.58 57.4,-89.27 98.4,-118.95 40.9,-29.74 86.4,-44.59 136.4,-44.59 38.8,0 75.8,7.92 111.1,23.75 35.4,15.94 64.2,39.43 86.6,70.42 22.5,31.09 33.8,68.23 33.8,111.46 h -219.8 l -44,187.5 h 510.9"
       style="fill:#2b2f3b;fill-opacity:1;fill-rule:nonzero;stroke:none"
       transform="matrix(0.13333333,0,0,-0.13333333,0,1479.8267)" />
    <path
       id="path16"
       d="m 32902.9,5261.26 c 27.6,-19.9 59.8,-38.23 96.5,-55 36.6,-16.82 73.4,-29.95 110.4,-39.37 37.1,-9.48 71.3,-13.75 102.9,-12.92 31.5,0.83 56.9,8.33 76.2,22.5 19.5,14.27 29.2,37.39 29.2,69.37 0,28.44 -10.8,53.65 -32.3,75.63 -21.5,21.93 -49.2,42.55 -82.9,61.87 -33.6,19.43 -69.4,39.07 -107.3,58.96 -37.9,19.85 -73.7,41.56 -107.3,65.21 -33.6,23.75 -61,50.89 -82.1,81.46 -21.1,30.68 -31.6,66.3 -31.6,106.87 0,45.68 9.6,90.26 28.9,133.75 19.4,43.6 48.1,81.51 86.1,113.75 37.9,32.35 84.2,55.42 138.9,69.17 54.9,13.86 117.8,14.06 189,0.63 71.1,-13.34 149.8,-44.12 236,-92.3 l -98.3,-193.95 c -40.6,34.42 -80.9,56.98 -121.1,67.7 -40,10.84 -76.8,12.97 -110.4,6.46 -33.6,-6.4 -60.5,-18.43 -80.8,-36.04 -20.3,-17.66 -30.4,-37.71 -30.4,-60.21 0,-19.89 11.1,-37.81 33.5,-53.75 22.5,-15.83 51.6,-31.77 87.3,-47.71 35.8,-15.99 74,-33.69 114.4,-53.12 40.5,-19.32 78.7,-42.19 114.6,-68.54 35.8,-26.25 65.1,-57.29 87.9,-93.13 22.9,-35.73 34.4,-78.54 34.4,-128.54 0,-50.83 -13.9,-100 -41.5,-147.5 -27.7,-47.4 -66,-88.33 -115.2,-122.92 -49.1,-34.48 -107.2,-57.18 -174.6,-68.33 -67.2,-11.25 -140.7,-6.93 -220.4,12.92 -79.7,19.84 -163.5,60.73 -251.5,122.71 l 121.5,204.37"
       style="fill:#2b2f3b;fill-opacity:1;fill-rule:nonzero;stroke:none"
       transform="matrix(0.13333333,0,0,-0.13333333,0,1479.8267)" />
    <path
       id="path17"
       d="m 29471,6502.36 v -305.21 h -525.2 v -303.33 h 503.1 v -305.21 h -503.1 v -307.09 h 525.2 v -305.2 h -873.1 v 1526.04 h 873.1"
       style="fill:#2b2f3b;fill-opacity:1;fill-rule:nonzero;stroke:none"
       transform="matrix(0.13333333,0,0,-0.13333333,0,1479.8267)" />
    <path
       id="path18"
       d="m 27536.3,4985.48 h -181.2 l -388.6,958.34 -5.4,-967.5 h -346 v 1526.04 h 492 l 340.5,-880.42 336.6,880.42 H 28278 V 4976.32 h -345.9 l -3.7,967.5 -392.1,-958.34"
       style="fill:#2b2f3b;fill-opacity:1;fill-rule:nonzero;stroke:none"
       transform="matrix(0.13333333,0,0,-0.13333333,0,1479.8267)" />
    <path
       id="path19"
       d="m 24776.5,5740.27 c 0,107.19 19.7,208.34 59.2,303.34 39.4,95 94.3,179.16 164.6,252.5 70.3,73.33 151.9,130.62 245,171.87 93.2,41.36 193.4,62.09 300.6,62.09 107.4,0 207.6,-20.73 300.6,-62.09 93.2,-41.25 174.6,-98.54 244.2,-171.87 69.7,-73.34 124.3,-157.5 163.8,-252.5 39.4,-95 59.1,-196.15 59.1,-303.34 0,-107.24 -19.7,-208.69 -59.1,-304.37 -39.5,-95.57 -94.1,-179.74 -163.8,-252.5 -69.6,-72.66 -151,-129.95 -244.2,-171.88 -93,-41.92 -193.2,-62.91 -300.6,-62.91 -107.2,0 -207.4,20.99 -300.6,62.91 -93.1,41.93 -174.7,99.22 -245,171.88 -70.3,72.76 -125.2,156.93 -164.6,252.5 -39.5,95.68 -59.2,197.13 -59.2,304.37 z m 345.9,0 c 0,-78.9 18.8,-151.35 56.4,-217.29 37.6,-65.99 88.5,-119.06 152.5,-159.16 64.2,-40 135.7,-60 214.6,-60 79,0 150.3,20 213.8,60 63.4,40.1 114,93.17 151.6,159.16 37.6,65.94 56.5,138.39 56.5,217.29 0,78.86 -18.9,151.31 -56.5,217.3 -37.6,65.93 -88.2,118.64 -151.6,158.12 -63.5,39.58 -134.8,59.38 -213.8,59.38 -78.9,0 -150.4,-19.8 -214.6,-59.38 -64,-39.48 -114.9,-92.19 -152.5,-158.12 -37.6,-65.99 -56.4,-138.44 -56.4,-217.3"
       style="fill:#2b2f3b;fill-opacity:1;fill-rule:nonzero;stroke:none"
       transform="matrix(0.13333333,0,0,-0.13333333,0,1479.8267)" />
    <path
       id="path20"
       d="M 24471.3,6502.36 V 4976.32 h -347.7 v 588.33 h -403.3 v -588.33 h -347.7 v 1526.04 h 347.7 v -590 h 403.3 v 590 h 347.7"
       style="fill:#2b2f3b;fill-opacity:1;fill-rule:nonzero;stroke:none"
       transform="matrix(0.13333333,0,0,-0.13333333,0,1479.8267)" />
    <path
       id="path21"
       d="m 23514,6717 602.6,702.13 h 681.7 l 102.1,114.89 640.9,15.32 15.3,148.08 h 104.7 v -150.63 l 102.1,-2.56 559.2,-827.23 h -921.8 l -467.2,720 -84.2,-89.36 411,-630.64 h -712.3 l -403.4,605.1 -546.4,-605.1 h -84.3"
       style="fill:#2b2f3b;fill-opacity:1;fill-rule:nonzero;stroke:none"
       transform="matrix(0.13333333,0,0,-0.13333333,0,1479.8267)" />
    <path
       id="path22"
       d="m 32413.2,5048.87 c 0,31.09 10.9,57.81 32.9,80.21 21.9,22.34 47.6,33.54 76.9,33.54 30.2,0 56.1,-11.2 77.7,-33.54 21.5,-22.4 32.3,-49.12 32.3,-80.21 0,-30.99 -10.8,-57.71 -32.3,-80.21 -21.6,-22.39 -47.5,-33.54 -77.7,-33.54 -29.3,0 -55,11.15 -76.9,33.54 -22,22.5 -32.9,49.22 -32.9,80.21"
       style="fill:#2b2f3b;fill-opacity:1;fill-rule:nonzero;stroke:none"
       transform="matrix(0.13333333,0,0,-0.13333333,0,1479.8267)" />
  </g>
</svg>
